<?xml version="1.0" encoding="utf-8"?>
<svg xmlns="http://www.w3.org/2000/svg" viewBox="0 0 524.169 114.675" fill="currentColor" aria-hidden="true" focusable="false">
  <g transform="matrix(1, 0, 0, 1, 3, -0.062004)">
    <path fill="none" stroke="currentColor" stroke-width="2" d="M 22.676 21.837 L 45.501 59.142 L 77.973 52.747 C 77.973 52.747 98.206 93.357 97.975 93.357 C 97.744 93.357 130.013 63.639 130.013 63.639"/>
    <ellipse cx="22.613" cy="21.911" rx="5.435" ry="5.435"/>
    <ellipse cx="45.826" cy="57.671" rx="5.435" ry="5.435"/>
    <ellipse cx="77.438" cy="52.751" rx="5.435" ry="5.435"/>
    <ellipse cx="97.134" cy="92.888" rx="5.435" ry="5.435"/>
    <ellipse cx="129.396" cy="63.714" rx="5.435" ry="5.435"/>
  </g>
  <path d="M186.3 78.3c-3.1 0-5.8-.8-8-2.3-2.3-1.5-4-3.8-5.2-6.9s-1.8-7.1-1.8-11.9.6-8.9 1.8-12 2.9-5.4 5.2-6.9 4.9-2.3 8-2.3 6.1.7 8.1 2.2 3.7 3.6 4.9 6.5l-3.6 2.1c-.7-2.2-1.9-3.9-3.3-5.1-1.5-1.2-3.5-1.8-6.1-1.8s-5.8 1.2-7.6 3.5-2.7 5.6-2.7 9.7v8.1c0 4.1.9 7.2 2.7 9.6 1.8 2.3 4.3 3.5 7.6 3.5s4.8-.6 6.4-1.9c1.5-1.2 2.6-3 3.4-5.4l3.6 2.2a16 16 0 0 1-5 6.7c-2.1 1.6-4.9 2.3-8.3 2.3ZM241.8 77.6h-4.6l-3.8-12.4h-15.3l-3.8 12.4h-4.4l13.2-40.9h5.5zm-9.4-16-4.9-15.5-1.5-5.4h-.5l-1.5 5.4-4.8 15.5zM265.9 78.3c-3 0-5.6-.6-7.8-1.9-2.2-1.2-4-2.9-5.5-5.1l3.2-2.7c1.3 1.8 2.8 3.3 4.4 4.3s3.5 1.6 5.7 1.6 5-.7 6.4-2c1.5-1.3 2.2-3.3 2.2-5.9s-.2-2.7-.7-3.6c-.5-1-1.2-1.8-2.3-2.4-1-.6-2.4-1.2-4.2-1.6l-3.2-.8c-2.4-.5-4.4-1.3-5.9-2.2-1.6-.9-2.7-2.1-3.5-3.6s-1.2-3.2-1.2-5.3.5-4.5 1.6-6.1c1-1.7 2.5-2.9 4.4-3.7q2.85-1.2 6.6-1.2c3.75 0 5.3.5 7.3 1.6q3 1.65 5.1 4.8l-3.3 2.3c-1.1-1.6-2.3-2.8-3.7-3.7s-3.3-1.3-5.6-1.3-4.6.6-5.9 1.7q-2.1 1.65-2.1 5.4c0 3.75.2 2.5.7 3.4s1.3 1.7 2.3 2.2c1.1.6 2.4 1.1 4 1.5l3.2.8c2.5.6 4.6 1.4 6.1 2.3s2.7 2.2 3.4 3.7 1.1 3.3 1.1 5.5-.5 4.7-1.6 6.5c-1 1.8-2.5 3.1-4.5 4s-4.3 1.3-6.9 1.3ZM306.2 77.6h-15V74h5.3V40.4h-5.3v-3.6h15v3.6h-5.3V74h5.3zM333.3 78.3c-3.3 0-6.1-.8-8.5-2.3s-4.2-3.8-5.5-6.9-1.9-7.1-1.9-11.9.6-8.8 1.9-11.9c1.2-3.1 3.1-5.4 5.5-6.9s5.2-2.3 8.5-2.3 6.2.8 8.5 2.3q3.6 2.25 5.4 6.9c1.2 3.1 1.9 7.1 1.9 11.9s-.6 8.8-1.9 11.9-3.1 5.4-5.4 6.9c-2.4 1.5-5.2 2.3-8.5 2.3m0-3.9c2.3 0 4.3-.5 6-1.6 1.6-1.1 2.9-2.6 3.8-4.5.9-2 1.3-4.3 1.3-6.9v-8.3c0-2.7-.4-5-1.3-7s-2.1-3.5-3.8-4.5c-1.6-1.1-3.6-1.6-6-1.6s-4.3.5-5.9 1.6a11 11 0 0 0-3.8 4.5c-.9 2-1.4 4.3-1.4 7v8.3c0 2.7.5 5 1.4 6.9a10 10 0 0 0 3.8 4.5c1.6 1.1 3.6 1.6 5.9 1.6M368.3 77.6h-4.5V36.7H379c2.3 0 4.2.4 5.7 1.3s2.7 2.2 3.5 3.9 1.2 3.8 1.2 6.4-.4 4.7-1.2 6.4-2 3-3.5 3.9-3.4 1.3-5.7 1.3h-10.8v17.7Zm0-37v15.5H379c1.2 0 2.3-.2 3.1-.7s1.5-1.1 1.9-2 .6-2 .6-3.2v-3.6c0-1.3-.2-2.4-.6-3.2a4.6 4.6 0 0 0-1.9-2c-.8-.4-1.9-.7-3.1-.7h-10.7ZM425.6 77.6h-22.8V36.7h22.8v3.9h-18.4V55h17.3v3.8h-17.3v14.9h18.4zM469.8 77.6h-4.6l-3.8-12.4h-15.3l-3.8 12.4h-4.4l13.2-40.9h5.5zm-9.4-16-4.9-15.5-1.5-5.4h-.5l-1.5 5.4-4.8 15.5z"/>
</svg>