<?xml version="1.0" encoding="utf-8"?>
<svg xmlns="http://www.w3.org/2000/svg" viewBox="0 0 524.169 114.675" fill="currentColor" aria-hidden="true" focusable="false">
  <g transform="matrix(1, 0, 0, 1, 3, -0.062004)">
    <path fill="none" stroke="currentColor" stroke-width="2" d="M 22.676 21.837 L 45.501 59.142 L 77.973 52.747 C 77.973 52.747 98.206 93.357 97.975 93.357 C 97.744 93.357 130.013 63.639 130.013 63.639"/>
    <ellipse cx="22.613" cy="21.911" rx="5.435" ry="5.435"/>
    <ellipse cx="45.826" cy="57.671" rx="5.435" ry="5.435"/>
    <ellipse cx="77.438" cy="52.751" rx="5.435" ry="5.435"/>
    <ellipse cx="97.134" cy="92.888" rx="5.435" ry="5.435"/>
    <ellipse cx="129.396" cy="63.714" rx="5.435" ry="5.435"/>
  </g>
  <path d="M 207.735 67.092 C 206.476 70.868 204.315 73.751 201.253 75.744 C 198.19 77.737 194.624 78.734 190.555 78.734 C 186.528 78.734 183.056 77.874 180.139 76.154 C 177.224 74.434 174.97 71.968 173.375 68.76 C 171.781 65.55 170.984 61.743 170.984 57.338 C 170.984 52.933 171.781 49.125 173.375 45.916 C 174.97 42.706 177.224 40.242 180.139 38.523 C 183.056 36.802 186.507 35.942 190.493 35.942 C 194.603 35.942 198.085 36.802 200.938 38.523 C 203.791 40.242 205.847 42.781 207.106 46.136 L 200.75 48.968 C 199.155 44.185 195.862 41.795 190.869 41.795 C 186.968 41.795 183.853 43.147 181.524 45.853 C 179.196 48.559 178.032 52.388 178.032 57.338 C 178.032 62.247 179.144 66.064 181.367 68.791 C 183.591 71.518 186.695 72.882 190.681 72.882 C 193.24 72.882 195.452 72.22 197.32 70.899 C 199.186 69.577 200.519 67.595 201.316 64.953 L 207.735 67.092 Z M 257.5 78.105 L 250.389 78.105 L 246.425 67.218 L 228.994 67.218 L 225.03 78.105 L 218.107 78.105 L 233.776 36.572 L 241.831 36.572 L 257.5 78.105 Z M 230.882 61.743 L 244.537 61.743 L 237.741 42.361 L 230.882 61.743 Z M 285.238 35.942 C 288.972 35.942 292.203 36.645 294.93 38.05 C 297.656 39.455 299.964 41.522 301.852 44.249 L 297.321 48.591 C 295.727 46.158 293.934 44.406 291.942 43.335 C 289.948 42.266 287.588 41.731 284.862 41.731 C 281.799 41.731 279.575 42.319 278.191 43.494 C 276.806 44.668 276.114 46.095 276.114 47.773 C 276.114 49.073 276.566 50.206 277.468 51.171 C 278.37 52.136 280.058 52.891 282.533 53.437 L 290.966 55.324 C 294.95 56.247 297.794 57.599 299.493 59.383 C 301.192 61.166 302.041 63.442 302.041 66.211 C 302.041 68.77 301.349 70.983 299.964 72.849 C 298.579 74.716 296.65 76.164 294.174 77.192 C 291.699 78.219 288.826 78.734 285.553 78.734 C 281.148 78.734 277.394 77.905 274.289 76.247 C 271.185 74.59 268.794 72.525 267.115 70.05 L 271.772 65.393 C 273.073 67.616 274.908 69.431 277.279 70.836 C 279.649 72.241 282.47 72.944 285.742 72.944 C 288.637 72.944 290.914 72.43 292.571 71.402 C 294.227 70.374 295.055 68.896 295.055 66.966 C 295.055 65.791 294.648 64.731 293.829 63.788 C 293.011 62.844 291.49 62.121 289.267 61.617 L 280.141 59.541 C 276.366 58.744 273.575 57.422 271.772 55.576 C 269.968 53.73 269.066 51.422 269.066 48.654 C 269.066 46.305 269.717 44.165 271.017 42.235 C 272.318 40.305 274.175 38.774 276.586 37.641 C 278.999 36.508 281.883 35.942 285.238 35.942 Z M 323.643 36.572 L 323.643 78.105 L 316.91 78.105 L 316.91 36.572 L 323.643 36.572 Z M 358.647 35.942 C 362.674 35.942 366.155 36.802 369.092 38.523 C 372.029 40.242 374.294 42.706 375.889 45.916 C 377.483 49.125 378.28 52.933 378.28 57.338 C 378.28 61.743 377.483 65.55 375.889 68.76 C 374.294 71.968 372.029 74.434 369.092 76.154 C 366.155 77.874 362.674 78.734 358.647 78.734 C 354.618 78.734 351.147 77.874 348.231 76.154 C 345.315 74.434 343.061 71.968 341.467 68.76 C 339.873 65.55 339.075 61.743 339.075 57.338 C 339.075 52.933 339.873 49.125 341.467 45.916 C 343.061 42.706 345.315 40.242 348.231 38.523 C 351.147 36.802 354.618 35.942 358.647 35.942 Z M 358.647 41.795 C 354.744 41.795 351.682 43.147 349.459 45.853 C 347.235 48.559 346.124 52.388 346.124 57.338 C 346.124 62.288 347.235 66.116 349.459 68.822 C 351.682 71.528 354.744 72.882 358.647 72.882 C 362.59 72.882 365.674 71.528 367.897 68.822 C 370.12 66.116 371.233 62.288 371.233 57.338 C 371.233 52.388 370.12 48.559 367.897 45.853 C 365.674 43.147 362.59 41.795 358.647 41.795 Z M 408.461 36.572 C 412.866 36.572 416.4 37.726 419.064 40.032 C 421.729 42.34 423.06 45.529 423.06 49.598 C 423.06 53.625 421.729 56.802 419.064 59.131 C 416.4 61.459 412.866 62.624 408.461 62.624 L 399.209 62.624 L 399.209 78.105 L 392.476 78.105 L 392.476 36.572 L 408.461 36.572 Z M 407.39 56.835 C 410.369 56.835 412.562 56.226 413.968 55.01 C 415.373 53.794 416.074 51.989 416.074 49.598 C 416.074 47.207 415.373 45.391 413.968 44.154 C 412.562 42.916 410.369 42.298 407.39 42.298 L 399.209 42.298 L 399.209 56.835 L 407.39 56.835 Z M 436.122 78.105 L 436.122 36.572 L 466.202 36.572 L 466.202 42.361 L 442.856 42.361 L 442.856 54.318 L 461.105 54.318 L 461.105 59.981 L 442.856 59.981 L 442.856 72.315 L 467.083 72.315 L 467.083 78.105 L 436.122 78.105 Z M 514.824 78.105 L 507.713 78.105 L 503.749 67.218 L 486.317 67.218 L 482.353 78.105 L 475.43 78.105 L 491.1 36.572 L 499.155 36.572 L 514.824 78.105 Z M 488.206 61.743 L 501.861 61.743 L 495.065 42.361 L 488.206 61.743 Z"/>
</svg>